<svg xmlns="http://www.w3.org/2000/svg" version="1.1" xmlns:xlink="http://www.w3.org/1999/xlink" xmlns:svgjs="http://svgjs.dev/svgjs" width="128" height="128" viewBox="0 0 128 128"><g transform="matrix(0.8046875,0,0,0.8046875,12.381370585040202,12.760752631578946)"><svg viewBox="0 0 95 95" data-background-color="#60777f" preserveAspectRatio="xMidYMid meet" height="128" width="128" xmlns="http://www.w3.org/2000/svg" xmlns:xlink="http://www.w3.org/1999/xlink"><g id="tight-bounds" transform="matrix(1,0,0,1,0.10941547981728661,-0.24049999999999727)"><svg viewBox="0 0 94.78116904036544 95.481" height="95.481" width="94.78116904036544"><g><svg viewBox="0 0 94.78116904036544 95.481" height="95.481" width="94.78116904036544"><g><svg viewBox="0 0 94.78116904036544 95.481" height="95.481" width="94.78116904036544"><g id="textblocktransform"><svg viewBox="0 0 94.78116904036544 95.481" height="95.481" width="94.78116904036544" id="textblock"><g><svg viewBox="0 0 94.78116904036544 95.481" height="95.481" width="94.78116904036544"><g><svg viewBox="0 0 94.78116904036544 95.481" height="95.481" width="94.78116904036544"><g><svg xmlns="http://www.w3.org/2000/svg" xmlns:xlink="http://www.w3.org/1999/xlink" version="1.1" x="0" y="0" viewBox="16.51842248486446 13.22937408864524 60.92080799967688 61.370625911354765" style="enable-background:new 0 0 91 91;" xml:space="preserve" height="95.481" width="94.78116904036544" class="icon-icon-0" data-fill-palette-color="accent" id="icon-0"><g fill="#657fe8" data-fill-palette-color="accent"><path d="M26.3 27.7l2.4 2.8c2.1 2.4 5.3 5.7 8.3 8.3 0.4 0.3 6 4.8 10.9 4.8 2.4 0 4.6-0.7 6.3-2.1 2.9-2.4 3.9-4.3 3.6-7.2-0.3-3.3-11-19.3-14-20.9-1.2-0.7-4 0.7-10.3 5.2-1.7 1.2-3.4 2.4-4.6 3.1-3.3 1.8-4.1 3.1-4.3 3.7-0.1 0.2 0 0.4 0.1 0.6C25.1 26.2 25.6 26.9 26.3 27.7z" fill="#657fe8" data-fill-palette-color="accent"></path><path d="M17.6 43.2l1.5 0.9c6.8 3.8 17.3 4.8 22.4 4.8 0.2 0 0.4 0 0.5 0l0.7 0c0.3 0 0.5 0 0.7-0.1 0.2 0 0.4-0.1 0.5-0.3 0.2-0.4 0.5-1.2 0.6-2.8 0-0.3-0.2-0.5-0.5-0.6-12-4.5-19.2-15.9-19.8-16.5-0.1-0.1-0.3-0.2-0.4-0.2-0.2 0-0.3 0.1-0.5 0.2-3 2.8-5.4 7.3-6.4 10.2-0.8 2.5-0.2 3.8 0.5 4.4C17.5 43.2 17.5 43.2 17.6 43.2z" fill="#657fe8" data-fill-palette-color="accent"></path><path d="M41.1 52c0 0 0-0.1 0.1-0.2 0.1-0.2 0-0.4-0.1-0.6s-0.3-0.3-0.5-0.3c-0.3 0-14.2-1.3-20.1-3.9-0.2-0.1-0.4-0.1-0.6 0.1-0.2 0.1-0.3 0.3-0.3 0.5 0.1 3.1 0.8 6.6 1.9 9.9 0.4 1 0.9 1.7 1.6 1.9C23.8 59.8 36.4 55.6 41.1 52z" fill="#657fe8" data-fill-palette-color="accent"></path><path d="M34.7 69.2c0.7-0.2 1.3-0.6 1.5-0.9l8.1-10.1c0.1-0.1 0.1-0.3 0.1-0.4 0-2.1-1-3.5-1.5-3.9-0.2-0.2-0.5-0.1-0.8 0.1-4.7 2.9-15.6 7-16.3 7.3-0.2 0.1-0.3 0.2-0.4 0.4s0 0.4 0.1 0.5c1.6 2.7 3.8 4.9 6.6 6.5 0.6 0.3 1.2 0.5 1.8 0.5 0.2 0 0.3 0 0.5 0L34.7 69.2z" fill="#657fe8" data-fill-palette-color="accent"></path><path d="M51.2 73.4c0.1 0 1.9-0.1 2.4-0.6 0.1-0.1 0.1-0.1 0.2-0.2 0.1-0.1 0.1-0.2 0.1-0.2 0.1-0.2 2.6-7.7 2.6-7.9 0.2-1.2 0.1-1.7-0.1-2 0 0 0-0.1-0.1-0.1-1.2-1.7-5.1-3.1-9-4-0.2 0-0.4 0-0.5 0.1-0.1 0.1-9.2 11.5-9.2 11.5-0.1 0.1-0.2 0.3-0.2 0.5 0 0.2 0.1 0.4 0.3 0.5C42.3 73.4 50.9 73.4 51.2 73.4z" fill="#657fe8" data-fill-palette-color="accent"></path><path d="M76.9 61c-1.4-0.4-3.6-0.7-5.1-0.9l-1.1-0.2c-2.1-0.3-6.2 0.6-11.6 2.6-0.3 0.1-0.4 0.3-0.4 0.6l-0.8 4.3c-0.1 0.2 0 0.4 0.1 0.6s0.3 0.3 0.5 0.3c0.2 0 0.5 0 0.7 0 4.2 0 15-3.7 18-6.2 0.2-0.2 0.3-0.4 0.2-0.6C77.4 61.2 77.2 61 76.9 61z" fill="#657fe8" data-fill-palette-color="accent"></path><path d="M56.5 72.9c2.8 1 6.6 1.7 9.7 1.7 4 0 7.4-2 8.8-3.3 0.1-0.1 0.2-0.3 0.2-0.5 0-0.2-0.1-0.4-0.3-0.5-0.5-0.4-1.7-1.1-4.3-2.2-0.1-0.1-0.3-0.1-0.5 0-4 1.5-12.8 2.1-12.8 2.1-0.3 0-0.5 0.1-0.6 0.4-0.1 0.3-0.6 1.5-0.6 1.5C56 72.5 56.2 72.8 56.5 72.9z" fill="#657fe8" data-fill-palette-color="accent"></path></g></svg></g></svg></g></svg></g></svg></g></svg></g><g></g></svg></g><defs></defs></svg><rect width="94.78116904036544" height="95.481" fill="none" stroke="none" visibility="hidden"></rect></g></svg></g></svg>